<svg xmlns="http://www.w3.org/2000/svg" viewBox="0 0 379.2 478.5">
  <style>
    .f { fill: #0a7c38; }
    @media (prefers-color-scheme: dark) {
      .f { fill: #22c55e; }
    }
  </style>
  <path class="f" fill-rule="evenodd" clip-rule="evenodd" d="M245.9 1.7C245 2.4 241.1 9.7 237.2 18C231.1 31 229.9 33 227.9 32.9C226.7 32.8 220.5 31.5 214.2 29.9C203.4 27.3 201.3 27.1 180.7 27.1C155.9 27 146.2 28.5 126.8 35.2C44.8 63.5 0 150.1 23.8 234C32.9 265.9 54.2 297.7 81 318.8L88.2 324.6L80.7 338.9C76.6 346.7 73.2 354.1 73.2 355.2C73.2 358.7 77.8 361.9 94.7 370.3C114.8 380.3 135.4 386.4 158.5 389.1C164.2 389.7 164.2 389.7 164.1 398.4C164 413.8 162.6 428.9 160.9 432.2C158.5 436.8 153.3 441.6 148.2 443.8C144.4 445.5 141.1 445.9 127.6 446.2C110.3 446.5 105.5 447.5 99.6 452C95 455.5 90.5 462.9 89.1 469.1C88 473.9 88.1 474.7 89.7 476.5C91.5 478.5 92.7 478.5 180.2 478.5C247.8 478.5 269.1 478.2 270 477.3C273.2 474.1 270 462.8 264.1 456.1C261.9 453.6 257.6 450.4 254.5 448.9C249.2 446.3 248.2 446.1 232 445.9C217.1 445.6 214.4 445.3 210.6 443.5C205.6 441 200.6 435.7 198.5 430.6C197.1 427.3 195.4 408.3 195.2 394.9C195.2 389.7 195.2 389.7 204.8 388.5C285.4 378.4 354.3 315.9 373.6 235.5C377.7 218.6 379.2 206.3 379.2 189C379.2 165.1 376.2 146.4 369 124.5C351.9 72.2 311.1 27.3 260.7 5.3C248.6 0 248.3 0 245.9 1.7ZM263.1 30.2C311 56.8 341.8 97.6 353.8 150.4C370.7 224.6 335.8 304.4 269.3 343.9C240.9 360.8 212.9 368.5 180.2 368.6C153.4 368.6 130.4 363.6 106.4 352.5C97.2 348.2 97.2 348.2 100.9 341.4C104.6 334.6 104.6 334.6 107.6 336C123.4 343 127.9 344.7 135.7 347C151.3 351.5 161.4 352.8 179.7 352.9C199.8 352.9 211 351.2 228.4 345.5C243.6 340.4 254.4 335.2 267.3 326.7C280.7 317.8 291.2 308.7 300.8 297.8C336.3 257.1 349.7 204.2 337.7 151.8C327.4 106.9 296.2 66.1 256.5 45.3C251.9 42.9 248.2 40.7 248.2 40.4C248.2 38.7 254.5 26.5 255.4 26.5C256 26.5 259.5 28.2 263.1 30.2ZM185.5 44.5C186 44.9 183.1 46.5 179 48.1C175 49.6 169.5 52.1 166.9 53.7C162.1 56.5 158.5 57.1 154.7 55.6C152.8 54.8 152.8 54.8 155 54.1C158 53.1 157.8 51.5 154.7 51.5C151.5 51.5 151.4 49.1 154.5 47.1C160 43.6 182.5 41.7 185.5 44.5ZM219.1 46.6C220.8 47.2 222.7 48.6 223.3 49.6C224 51 225.4 51.5 228.3 51.5C232.4 51.5 232.4 51.5 229.3 54.4C226.5 57 226.2 57.9 226.2 63.3C226.2 67.4 225.7 69.6 224.7 70.5C223.9 71.2 223.2 73.3 223.2 75.1C223.2 78.8 221 80.8 215.7 82.1C214.1 82.4 210.9 83.7 208.7 85C206.5 86.2 203.5 87.5 202 87.9C200.1 88.3 198.4 90.1 196.2 94C194.5 97 192.6 99.7 192.1 100.1C190.3 101.2 184.7 97 183.5 93.5C181.6 87.9 181.9 81.8 184.2 79.8C186.3 77.9 186.8 75 185.2 74C184.7 73.7 184.2 71 184.2 68.1C184.2 61.9 182.5 59.8 177.2 59.3C174.2 59.1 173.7 58.6 173.4 56.3C173.1 54 173.5 53.5 175.9 53C177.4 52.6 179.4 52 180.2 51.5C186 47.8 188.5 47 195.7 46.5C208.8 45.4 215.7 45.4 219.1 46.6ZM129.5 54.8C133.7 54.8 132.2 56.8 127.3 57.8C122.5 58.8 120.2 58.2 120.2 56.1C120.2 54.5 123 53.5 125.2 54.3C126 54.6 128 54.8 129.5 54.8ZM141.2 56.4C141.2 57.3 138.8 58.5 137.1 58.5C136.6 58.5 136.2 57.8 136.2 57C136.2 56.1 137.1 55.5 138.7 55.5C140.1 55.5 141.2 55.9 141.2 56.4ZM149.2 57C149.9 57.8 151.9 58.5 153.8 58.5C155.6 58.5 157.4 58.9 157.7 59.5C158.6 60.9 147.9 60.8 146.5 59.4C145.3 58.2 145.8 55.5 147.2 55.5C147.6 55.5 148.5 56.2 149.2 57ZM117.4 61C119.8 63.1 121.1 63.5 123.6 62.9C126.1 62.4 126.5 62.5 125.5 63.6C124.8 64.3 124.2 65.9 124.2 67.1C124.2 70.2 122.7 70.9 115.5 71C108.4 71.2 105.8 70.2 108.2 68.2C110.6 66.3 109.5 63.2 106.7 63.9C103 64.8 102.9 62.9 106.4 60.7C110.9 57.9 113.9 58 117.4 61ZM135.2 63C135.2 64.2 132.4 66.5 130.8 66.5C129.7 66.5 130.2 63.9 131.4 62.7C133.1 61 135.2 61.2 135.2 63ZM142.2 63C140.8 64.6 138.2 65 138.2 63.6C138.2 62.6 139.9 61.7 142.1 61.6C143.2 61.5 143.2 61.8 142.2 63ZM161.4 68.8C163.4 71.1 165.1 73.9 165.2 74.9C165.2 76 166.3 78.1 167.7 79.5C170 81.9 170.1 82.3 168.7 83.5C167.4 84.6 166.6 84.6 165.1 83.7C162.3 81.9 161 83.1 162.4 86C163.7 88.9 162.7 91.9 160.8 91.2C160 90.9 159.1 91.1 158.9 91.8C158.6 92.6 157.2 91.8 155.1 89.9C153.2 88.2 150.4 86.3 148.7 85.7C146.7 85.1 146.2 84.6 147.2 84.3C148 84 150 83.4 151.6 82.9C158.6 80.7 158 73.7 150.7 72.1C144.6 70.8 142.2 69.7 142.2 68.1C142.2 65 146.4 63.3 152.2 64C156.9 64.6 158.1 65.2 161.4 68.8ZM99.9 68.5C101.4 69.1 103.6 70.7 104.7 72C105.9 73.5 107.8 74.5 109.2 74.5C110.6 74.4 113.1 74.4 114.7 74.3C116.4 74.3 119.4 74.6 121.4 75C126.6 76.1 130.1 74.9 131.5 71.7C133.5 67.2 136.2 66 136.2 69.7C136.2 73.3 137.3 76.5 138.5 76.5C139.1 76.5 140.6 75.6 141.8 74.4C144.1 72.3 146.2 72.5 146.2 74.9C146.2 76.8 143.1 79.2 139.7 80.1C135.3 81.2 119 90.2 117 92.6C114.4 95.6 114.7 99.7 117.5 101.5C127.6 107.9 127.1 107.4 126.6 110.8C125.7 116.9 130.4 118.7 131.8 112.8C132.2 111.3 134 108.6 135.8 106.9C137.9 104.9 139.2 102.8 139.2 101.3C139.2 98.5 141.6 93.3 143.5 91.7C144.3 91 145.9 91.1 148.2 91.9C151.3 92.9 151.7 93.5 152 96.7C152.4 101 154.5 102.2 158 99.9C161 98 162.2 99.2 162.2 104.2C162.2 106.3 163.3 108.7 165.7 111.6C168.1 114.3 169.1 116.4 168.6 117.4C167.1 121 167.1 123.2 168.6 124.4C169.5 125.2 170.2 126.8 170.2 128.1C170.2 130.8 170.1 130.8 167 129.6C165.7 129.1 163.9 128.4 162.9 128.1C161.2 127.6 161.3 127.2 163.6 124.2C165 122.3 166.2 120.6 166.2 120.3C166.2 119.3 149.5 120.8 147 122.1C142.5 124.4 142.6 125.6 147.3 124.9C151.3 124.2 151.5 124.3 150.9 126.4C150.3 129 152.5 131.5 155.5 131.5C158.3 131.5 156.7 132.8 151.4 134.9C147.3 136.4 147.1 136.4 147.4 134.8C147.6 133.5 147.1 133.1 145.7 133.3C142.2 133.9 138.7 136 137.8 138C137.3 139.1 135.1 140.9 132.8 142C129.9 143.4 127.8 145.5 125.7 149.1C123.9 152.2 121 155.4 118.4 157C113 160.5 112.2 162 112.2 169.4C112.2 177.5 109.6 177.6 108.2 169.6C107.4 164.5 104.6 163.3 94.7 164.1C90.3 164.5 85.5 165.4 84.1 166.1C79 168.7 76.2 182.2 79.8 187.3C82.2 190.7 87.5 190.3 90.2 186.5C91.6 184.6 93.2 183.5 94.8 183.5C96.1 183.5 97.2 183.6 97.2 183.7C97.2 183.9 96.3 186.4 95.2 189.4C94 192.3 93.2 194.8 93.4 194.9C93.6 195 95.5 195.6 97.7 196.1C101.7 197 101.7 197 102.2 203.4C102.6 208.6 103.1 209.9 104.7 210.5C105.8 210.9 107.2 211 107.8 210.8C108.4 210.6 110.1 210.9 111.6 211.5C114.1 212.4 114.8 212.2 117.7 209.6C122.5 205.4 124.5 205.1 129.8 207.4C132.4 208.6 136 209.5 137.8 209.5C140.3 209.5 142.3 210.6 146.1 214C148.9 216.4 153 218.9 155.2 219.6C159.8 221 161.9 223 164.7 228.9C166.8 233.2 171.6 236.2 180.7 238.9C182.9 239.6 186.6 241.4 189 242.8C194.5 246.3 194.6 249.5 189.6 256.1C186.9 259.6 185.8 262.2 185.2 266.7C184.1 274.5 182.2 277.1 175.7 280C171.4 281.9 170.2 282.9 169.7 285.2C168.2 292.4 161.5 301.1 158.1 300.2C156.4 299.7 156.2 300 156.8 303C157.3 305.9 157.1 306.4 155 307C151.4 308.1 147.4 312.4 147.9 314.5C148.2 315.5 147.9 317.3 147.2 318.5C146.3 320.1 146.3 321 147.3 322.1C148.2 323.2 148.2 324.1 147.3 326.1C146.3 328.4 146.5 329 149.6 332.1C152.4 334.9 152.7 335.5 151.1 335.5C147.6 335.5 142.7 332.9 139.6 329.3C135 324.1 131.5 308.4 130.7 289C130.3 280.7 129.5 272.7 128.8 271.2C128.2 269.7 125.5 266.8 122.7 264.7C120 262.6 116.9 259.6 115.9 258C114.9 256.3 112.3 252.2 110.1 248.7C106.6 243 106.3 242 106.7 236.9C107 233 107.9 230.1 110.1 226.9C112.5 223.2 112.9 221.7 112.5 218.7C111.9 214.3 109.5 212 107.6 213.6C105.6 215.2 100.3 211.8 96.9 206.7C95.3 204.4 92.6 201.7 90.9 200.8C89.1 200 86.4 198.1 84.8 196.8C82.8 195.1 81.2 194.5 79.5 195C76.7 195.7 70.8 192.8 65.7 188.4C63 186 62.2 184.5 62.2 181.9C62.2 180.1 61.1 176.2 59.9 173.3C58.6 170.3 56.7 165.6 55.8 162.7C52.5 152.9 50.9 157.7 53.8 168.7C54.6 172 55.1 175.2 54.9 175.8C54.1 178 50.4 167.8 49.2 159.9C48.5 155.6 47.4 151.3 46.7 150.5C42.9 145.8 44.8 135.5 51.7 123.7C55.1 117.9 56.2 115 56.2 111.9C56.2 108.3 57.1 106.4 62.1 99.7C68.9 90.5 80.1 78.9 88.7 72.2C95.2 67.1 95.6 67 99.9 68.5ZM137.3 86.9C133.4 88 132.3 87.1 134.7 84.5C136.4 82.6 136.6 82.6 138.5 84.2C140.4 86 140.4 86 137.3 86.9ZM289.5 89.7C312.9 114.4 327.8 153.8 327 188.9L326.7 201.8L321.7 192C317.1 182.9 314.2 179.3 314.2 182.7C314.2 183.5 316.5 189.7 319.4 196.5C325.8 211.8 326.1 216.4 321.3 232.5C314.9 254 301.3 276.9 285.2 293.5C277.5 301.5 275.1 302.2 274.7 296.5C274.6 294.6 273.9 288.1 273.2 282.2C272 271.4 272 271.3 274.7 265.4C277.7 258.6 277.6 254.2 274 246.7C272.4 243.3 272.1 241.3 272.7 237C273.3 231.6 273.3 231.6 267.6 228.9C262.1 226.3 261.7 226.3 253.8 227.4C249.4 228 244.7 228.5 243.5 228.5C240.3 228.5 234.2 222.7 229.9 215.6C226.2 209.7 226.2 209.7 226.8 200.4C227.6 189.2 228.6 186.6 235.2 179.8C237.9 176.9 240.2 173.9 240.2 173C240.2 172.2 241.8 169.7 243.8 167.5C247 164 247.9 163.5 250.6 164C252.3 164.4 255.6 163.9 258.1 163.1C260.5 162.2 265.3 161.5 268.8 161.5C275.2 161.5 275.2 161.5 275.2 164.9C275.2 168.1 275.6 168.6 282.4 172.3C290 176.4 291.7 176.6 292.5 173.4C293.1 171.1 295.3 171 299.4 173.1C301.4 174.1 304.8 174.7 308.1 174.6C314.6 174.5 316.2 173.1 316.2 167.4C316.2 163.7 316.2 163.7 310 162.8C303.9 162 303.6 161.9 301.5 157.6C298.7 152.1 298.6 152 296.8 153.4C295.8 154.3 295.5 155.7 295.9 158.2C296.8 163.5 294.3 162.1 291 155.4C288.6 150.6 280.1 141.5 278 141.5C275.7 141.5 277.8 145.9 281.8 149.3C286.4 153.2 286.4 153.2 284.8 156.8C283.4 160.4 281 161.6 279.7 159.5C279.4 158.9 280 158.5 281.1 158.5C284.9 158.5 283.4 155.1 277.2 149.7C272.2 145.2 270.9 144.6 269.3 145.5C268.2 146 266.6 146.5 265.6 146.5C263.5 146.5 259.3 150.9 257.6 155.2C255.8 159.4 252.9 160.9 247.8 160.2C242.4 159.4 241 157.4 241.8 151C242.2 148.3 242.9 145.7 243.4 145.4C243.9 145.1 246.5 145 249.2 145.3C253.4 145.7 254.1 145.5 254.7 143.7C255.4 141.3 253.8 137.8 250.8 135.4C248.8 133.8 248.8 133.7 252.1 133C256.9 132 267.7 122 267.7 118.6C267.7 115 269.6 114.5 270.2 118C270.8 121.4 273.7 122.5 280.2 121.6C284.2 121.1 284.7 120.7 285 118.2C285.2 116.7 286 115.5 286.7 115.5C288.7 115.5 289.5 113.6 288.2 112C287.3 110.9 287.6 110.6 289.8 110.3C294.4 109.8 294 107.5 289.3 107.5C286.1 107.5 284.9 107 283.6 105C282.2 102.9 282.1 101.9 283.1 99.9C284.9 96 284.5 94.3 282 94.7C280.6 94.9 279.7 95.7 279.7 96.7C279.7 97.7 279.1 99 278.4 99.7C276.9 101.2 276.9 103.6 278.2 106.7C279.6 109.8 278.1 116.9 276 117.3C275 117.5 273.5 116.1 272.1 113.6C269.8 109.4 268.4 108.7 266.6 110.5C265.1 112 262.5 110.7 261.8 108.2C260.7 103.9 261.2 101.8 264.3 98.9C266 97.3 268.4 93.7 269.7 90.9C272.3 85 275.3 82.5 279.7 82.5C282.1 82.5 284 83.9 289.5 89.7ZM233.5 89.4C234 89.5 234.2 90.5 234 91.7C233.6 94.2 229.3 96 225.7 95.1C223.2 94.5 220.7 91.1 221.6 89.6C222 89 227.9 88.9 233.5 89.4ZM251.2 113.6C251.2 114.5 252.8 117.3 254.7 119.8C256.6 122.3 258.2 124.8 258.2 125.4C258.2 126.9 254.7 128.5 251.2 128.5C248.6 128.5 248.2 128.2 248.6 126.2C248.8 125 249.3 123.2 249.7 122.2C250.2 121 249.7 119.3 248.3 117.5C246 114.3 245.5 109.9 247.5 109.2C248.9 108.7 251.1 111.3 251.2 113.6ZM246 120.2C246.3 122.5 243.8 125.5 241.6 125.5C239.5 125.5 239.8 119.8 242 118.6C244.3 117.2 245.6 117.7 246 120.2ZM116.2 183.8C121.4 186.8 121.5 187 118.9 187.3C117.1 187.5 115.1 186.8 113.1 185.1C111.1 183.4 108.8 182.5 106.6 182.5C104.5 182.5 103.3 182.1 103.7 181.5C104.9 179.5 110.8 180.6 116.2 183.8ZM130.7 189.9C132.6 191.2 132.4 191.4 128.9 192C124 192.9 121.5 192 123.2 190C124.8 188.1 128.2 188.1 130.7 189.9Z"/>
</svg>
